<?xml version="1.0" encoding="UTF-8"?>
<svg id="Layer_1" data-name="Layer 1" xmlns="http://www.w3.org/2000/svg" xmlns:svg="http://www.w3.org/2000/svg" xmlns:sodipodi="http://sodipodi.sourceforge.net/DTD/sodipodi-0.dtd" xmlns:inkscape="http://www.inkscape.org/namespaces/inkscape" version="1.1" viewBox="0 0 513.9 227.9">
  <defs>
    <style>
      .cls-1, .cls-2, .cls-3, .cls-4, .cls-5 {
        fill: #ff9200;
      }

      .cls-1, .cls-6, .cls-7 {
        fill-rule: evenodd;
        stroke-width: 0px;
      }

      .cls-2 {
        letter-spacing: 0em;
      }

      .cls-2, .cls-3, .cls-8, .cls-9, .cls-10, .cls-4, .cls-5 {
        font-family: ZagBold, 'Zag Bold';
      }

      .cls-2, .cls-3, .cls-8, .cls-9, .cls-10, .cls-4, .cls-5, .cls-11 {
        isolation: isolate;
      }

      .cls-2, .cls-3, .cls-10, .cls-4, .cls-5 {
        font-size: 96px;
      }

      .cls-8 {
        fill: none;
        stroke: #000;
        stroke-width: .3px;
      }

      .cls-8, .cls-9 {
        font-size: 60.2px;
      }

      .cls-9, .cls-10, .cls-7 {
        fill: #000;
      }

      .cls-6 {
        fill: gray;
      }

      .cls-4 {
        letter-spacing: 0em;
      }

      .cls-12 {
        fill: #fff;
        stroke: #fff;
        stroke-width: .4px;
      }

      .cls-5 {
        letter-spacing: -.2em;
      }
    </style>
  </defs>
  <sodipodi:namedview id="namedview38" bordercolor="#000000" borderopacity="0.25" inkscape:current-layer="Layer_1" inkscape:cx="197.42626" inkscape:cy="113.36586" inkscape:deskcolor="#d1d1d1" inkscape:pagecheckerboard="false" inkscape:pageopacity="0.0" inkscape:showpageshadow="2" inkscape:window-height="1355" inkscape:window-maximized="1" inkscape:window-width="2560" inkscape:window-x="0" inkscape:window-y="0" inkscape:zoom="1.2966867" pagecolor="#ffffff" showgrid="false"/>
  <rect id="rect857" class="cls-12" x="-192.4" y="-117.5" width="881.2" height="463.9"/>
  <g id="g1037">
    <g id="logo">
      <path id="path6" class="cls-7" d="M79.9,10.9c14.5-2.3,26,7.4,29.2,15.3,2.4,5.9,1.8,15.9,4.4,21.7,4.1,9,12.9,15.4,22.2,16.3,7.7.8,15.8-4.7,26.7-2,11.4,2.8,24.2,16.6,17.3,34.6-3.2,8.3-11.8,15.4-22.7,15.8-7.9.3-15.4-3.4-22.2-2.5-9.8,1.3-18.5,9-21.7,16.8-2.8,6.7-1.7,14.7-4.4,21.2-4.1,9.8-18.1,19.8-33.1,13.8-21.2-8.5-21.8-47.5,7.9-49.4,9.5-.6,16.4,3.7,24.7,2,9.2-1.9,16.2-7.6,19.8-15.8,8.3-19.1-5.2-39.2-24.7-40-10.4-.4-15,4-24.2,2-16.6-3.7-25.5-27-13.3-41.5,2.6-3.1,8.1-7.4,14.3-8.4h0Z"/>
      <path id="path8" class="cls-1" d="M134.8,19.8c9.2-2.1,18.3,2.2,20.8,10.4,3.4,11.5-5.3,25.8-20.8,22.7-17-3.4-16-29.5,0-33.1Z"/>
      <path id="path10" class="cls-6" d="M97.2,62.3c36.3-5.7,39.9,47.2,7.9,50.4-8.9.9-14-3.1-22.2-2.5-17.5,1.3-31.2,19.3-23.7,38.5,3,7.7,12,17.7,25.7,17.8,4.7,0,11.4-3.1,17.8-3,17.6.4,29.1,18.3,23.2,34.6-7.7,21.2-39.7,21.5-47.9,1-3.2-7.9-1.9-16.3-4.4-21.7-3.4-7.3-12.1-16.1-24.7-16.3-5.6-.1-11.9,4-22.2,2.5-14.2-2.1-25.9-19.7-18.8-36.1,2.3-5.3,9.3-13.6,20.3-14.8,9.6-1,15.7,3.1,22.7,2.5,9.6-.8,19.1-6.9,23.2-16.8,2.8-6.8,1.5-14.4,3.9-20.8,2.8-7.4,9.7-13.8,19.3-15.3h0Z"/>
      <path id="path12" class="cls-1" d="M45.8,79.1c7.3-1.8,10.8,2.6,10.9,7.9.2,10.8-17.5,12.7-17.3,0,0-4.1,1.9-6.8,6.4-7.9h0Z"/>
      <path id="path14" class="cls-1" d="M136.3,126c8.9-1.8,15.9,3.7,15.8,12.4-.1,13.9-20.9,17.7-25.2,4.4-2.5-7.5.4-14.9,9.4-16.8Z"/>
      <path id="path16" class="cls-1" d="M44.8,167c16.1-2.2,32,13.2,24.2,31.6-3.8,8.9-17,17.4-30.1,11.9-20.2-8.4-17-40.4,5.9-43.5Z"/>
    </g>
    <g id="text21" class="cls-11">
      <text class="cls-10" transform="translate(198.5 78.7)"><tspan x="0" y="0">MD</tspan></text>
    </g>
    <g id="text35" class="cls-11">
      <text class="cls-3" transform="translate(199.5 154.7)"><tspan x="0" y="0">A</tspan></text>
      <text class="cls-4" transform="translate(249.3 154.7)"><tspan x="0" y="0">N</tspan></text>
      <text class="cls-3" transform="translate(293.2 154.7)"><tspan x="0" y="0">A</tspan></text>
      <text class="cls-5" transform="translate(343 154.7)"><tspan x="0" y="0">L</tspan></text>
      <text class="cls-2" transform="translate(365 154.7)"><tspan x="0" y="0">Y</tspan></text>
      <text class="cls-3" transform="translate(404.4 154.7)"><tspan x="0" y="0">SIS</tspan></text>
    </g>
    <g id="text375" class="cls-11">
      <text class="cls-9" transform="translate(198.6 212.6) scale(.9 1)"><tspan x="0" y="0">UGM 2024</tspan></text>
      <text class="cls-8" transform="translate(198.6 212.6) scale(.9 1)"><tspan x="0" y="0">UGM 20</tspan></text>
    </g>
  </g>
</svg>