<?xml version="1.0" encoding="UTF-8" standalone="no"?>
<!-- Created with Inkscape (http://www.inkscape.org/) -->

<svg
   width="210mm"
   height="297mm"
   viewBox="0 0 793.70081 1122.5197"
   version="1.1"
   id="svg1"
   inkscape:version="1.3.2 (091e20e, 2023-11-25)"
   sodipodi:docname="gears.svg"
   inkscape:export-filename="gears_out.svg"
   inkscape:export-xdpi="300"
   inkscape:export-ydpi="300"
   xmlns:inkscape="http://www.inkscape.org/namespaces/inkscape"
   xmlns:sodipodi="http://sodipodi.sourceforge.net/DTD/sodipodi-0.dtd"
   xmlns="http://www.w3.org/2000/svg"
   xmlns:svg="http://www.w3.org/2000/svg">
  <sodipodi:namedview
     id="namedview1"
     pagecolor="#ffffff"
     bordercolor="#000000"
     borderopacity="0.25"
     inkscape:showpageshadow="2"
     inkscape:pageopacity="0.0"
     inkscape:pagecheckerboard="0"
     inkscape:deskcolor="#d1d1d1"
     inkscape:document-units="mm"
     showguides="false"
     inkscape:zoom="0.71824849"
     inkscape:cx="400.2793"
     inkscape:cy="421.16344"
     inkscape:window-width="1512"
     inkscape:window-height="858"
     inkscape:window-x="1173"
     inkscape:window-y="1118"
     inkscape:window-maximized="0"
     inkscape:current-layer="g21">
    <sodipodi:guide
       position="419.31433,873.61812"
       orientation="1122.52,0"
       id="guide1"
       inkscape:locked="false" />
    <sodipodi:guide
       position="328.00001,470.5197"
       orientation="0,793.701"
       id="guide2"
       inkscape:locked="false" />
    <sodipodi:guide
       position="316.07674,660.77897"
       orientation="0,793.701"
       id="guide3"
       inkscape:locked="false" />
    <sodipodi:guide
       position="0,1122.5197"
       orientation="0,793.70079"
       id="guide4"
       inkscape:locked="false" />
    <sodipodi:guide
       position="793.70081,1122.5197"
       orientation="1122.5197,0"
       id="guide5"
       inkscape:locked="false" />
    <sodipodi:guide
       position="793.70081,0"
       orientation="0,-793.70079"
       id="guide6"
       inkscape:locked="false" />
    <sodipodi:guide
       position="0,0"
       orientation="-1122.5197,0"
       id="guide7"
       inkscape:locked="false" />
  </sodipodi:namedview>
  <defs
     id="defs1" />
  <g
     inkscape:label="Layer 1"
     inkscape:groupmode="layer"
     id="layer1"
     style="display:inline"
     sodipodi:insensitive="true" />
  <g
     inkscape:groupmode="layer"
     id="layer2"
     inkscape:label="Circles"
     style="display:none">
    <circle
       style="fill:#000000"
       id="path1"
       cx="397.5"
       cy="461.5"
       r="195.5" />
    <circle
       style="display:inline;fill:#ffffff;stroke-width:0.826087"
       id="path1-2"
       cx="397.5"
       cy="461.5"
       r="161.5" />
  </g>
  <g
     inkscape:groupmode="layer"
     id="layer4"
     inkscape:label="Spokes"
     sodipodi:insensitive="true"
     style="display:none">
    <path
       id="path7"
       style="fill:#000000;stroke-width:0.696429"
       d="m 365.92454,237.87594 c 0,0 1.39341,16.7157 -7.66015,32.03711 l 39,4.875 39,-4.875 c -9.05356,-15.32141 -7.66016,-32.03515 -7.66016,-32.03515 h -31.33984 v -0.002 z" />
    <path
       id="path7-7"
       style="fill:#000000;stroke-width:0.696429"
       d="m 482.37672,252.31429 c 0,0 -7.15112,15.17293 -22.65244,23.91488 l 31.33749,23.72187 36.21249,15.27813 c -0.1799,-17.79551 9.38369,-31.57333 9.38369,-31.57333 l -27.1411,-15.66992 0.001,-0.002 z" />
    <path
       id="path7-7-6"
       style="fill:#ffffff;stroke:#9d9d9d;stroke-width:11.3386;stroke-dasharray:none;stroke-opacity:1"
       d="m 575.46067,322.57461 c 0,0 -13.77952,9.56458 -31.57503,9.38467 l 15.27813,36.21249 23.72187,31.33749 c 8.74195,-15.50131 23.91318,-22.65146 23.91318,-22.65146 l -15.66993,-27.14109 0.002,-10e-4 z" />
    <path
       id="path7-7-6-0"
       style="fill:#000000;stroke-width:0.696429"
       d="m 621.08764,429.83997 c 0,0 -16.7157,1.39341 -32.03711,-7.66015 l -4.87499,39 4.87499,39 c 15.32141,-9.05355 32.03515,-7.66015 32.03515,-7.66015 l -10e-6,-31.33984 0.002,1.4e-4 z" />
    <path
       id="path7-0"
       style="fill:#000000;stroke-width:0.696429"
       d="m 365.92536,685.10893 c 0,0 1.39341,-16.7157 -7.66015,-32.03711 l 39.00001,-4.875 39,4.875 c -9.05356,15.32141 -7.66016,32.03515 -7.66016,32.03515 h -31.33984 v 0.002 z" />
    <path
       id="path7-7-1"
       style="fill:#000000;stroke-width:0.696429"
       d="m 482.44825,670.57726 c 0,0 -7.15112,-15.17293 -22.65244,-23.91488 l 31.33749,-23.72187 36.21249,-15.27813 c -0.1799,17.79551 9.38369,31.57333 9.38369,31.57333 l -27.1411,15.66992 0.001,0.002 z" />
    <path
       id="path7-7-6-5"
       style="fill:#000000;stroke-width:0.696429"
       d="m 575.65818,600.05094 c 0,0 -13.77952,-9.56458 -31.57503,-9.38467 l 15.27813,-36.21249 23.72187,-31.33749 c 8.74195,15.50131 23.91318,22.65146 23.91318,22.65146 l -15.66993,27.14109 0.002,10e-4 z" />
    <path
       id="path7-7-9"
       style="fill:#000000;stroke-width:0.696429"
       d="m 313.1719,252.99999 c 0,0 7.15112,15.17293 22.65244,23.91488 l -31.33749,23.72187 -36.21249,15.27813 c 0.1799,-17.79551 -9.38369,-31.57333 -9.38369,-31.57333 l 27.1411,-15.66992 -10e-4,-0.002 z" />
    <path
       id="path7-7-6-3"
       style="fill:#000000;stroke-width:0.696429"
       d="m 219.96584,323.50454 c 0,0 13.77952,9.56458 31.57503,9.38467 l -15.27813,36.21249 -23.72187,31.33749 c -8.74195,-15.50131 -23.91318,-22.65146 -23.91318,-22.65146 l 15.66993,-27.14109 -0.002,-10e-4 z" />
    <path
       id="path7-7-6-0-9"
       style="fill:#000000;stroke-width:0.696429"
       d="m 175.00002,429.4101 c 0,0 16.7157,1.39341 32.03711,-7.66015 l 4.87499,39 -4.87499,39 c -15.32141,-9.05355 -32.03515,-7.66015 -32.03515,-7.66015 l 1e-5,-31.33984 -0.002,1.4e-4 z" />
    <path
       id="path7-7-1-1"
       style="fill:#000000;stroke-width:0.696429"
       d="m 313.1719,670.9472 c 0,0 7.15112,-15.17293 22.65244,-23.91488 l -31.33749,-23.72187 -36.21249,-15.27813 c 0.1799,17.79551 -9.38369,31.57333 -9.38369,31.57333 l 27.1411,15.66992 -10e-4,0.002 z" />
    <path
       id="path7-7-6-5-0"
       style="fill:#000000;stroke-width:0.696429"
       d="m 219.29296,600.44265 c 0,0 13.77952,-9.56458 31.57503,-9.38467 L 235.58986,554.84549 211.86799,523.508 c -8.74195,15.50131 -23.91318,22.65146 -23.91318,22.65146 l 15.66993,27.14109 -0.002,10e-4 z" />
  </g>
  <g
     inkscape:groupmode="layer"
     id="g20"
     inkscape:label="Circles copy"
     style="display:none">
    <path
       id="circle19"
       style="display:inline;fill:#000000;fill-opacity:1;stroke:#000000;stroke-width:7.55906;stroke-linecap:butt;stroke-linejoin:round;stroke-dasharray:none;stroke-opacity:1;paint-order:normal"
       d="m 365.92384,237.87501 c 0,0 1.39338,16.71572 -7.66016,32.03711 l -22.99609,6.67578 c -15.11177,-8.78704 -22.09571,-23.58789 -22.09571,-23.58789 l -27.14062,15.66992 v 0.002 l -27.14063,15.66992 c 0,0 9.21426,13.2867 9.37695,30.61524 -6.35605,5.58058 -12.34324,11.56778 -17.92382,17.92383 -17.21127,-0.24484 -30.37696,-9.37696 -30.37696,-9.37696 l -15.67187,27.14258 h 0.002 l -15.66992,27.14063 c 0,0 14.89999,7.02943 23.67578,22.24609 -2.3528,7.21811 -4.28316,14.56715 -5.78125,22.00977 C 191.34297,430.76542 175,429.41017 175,429.41017 v 31.33984 h 0.002 v 31.33985 c 0,0 16.0747,-1.3334 31.14648,7.15429 l 5.71875,24.26367 c -8.74193,15.50129 -23.91211,22.65235 -23.91211,22.65235 l 15.66992,27.14062 h -0.002 l 15.66992,27.14258 c 0,0 13.77875,-9.56467 31.57422,-9.38476 l 17.40625,16.99023 c 0.17411,17.78786 -9.38281,31.55664 -9.38281,31.55664 l 27.14063,15.66993 v 0.002 l 27.14062,15.66992 c 0,0 7.15105,-15.17213 22.65235,-23.91406 l 22.4414,6.03906 c 9.05354,15.32139 7.66016,32.03711 7.66016,32.03711 h 31.33984 v -0.002 h 31.33985 c 0,0 -1.3934,-16.71377 7.66016,-32.03516 l 23.52929,-6.41016 c 15.5013,8.74195 22.65235,23.91602 22.65235,23.91602 l 27.14258,-15.66992 -0.002,-0.002 27.14063,-15.66993 c 0,0 -9.56271,-13.77873 -9.38281,-31.57422 l 16.76367,-16.99609 c 17.7831,-0.1705 31.54883,9.38477 31.54883,9.38477 l 15.66992,-27.14063 -0.002,-0.002 15.66992,-27.14063 c 0,0 -15.17018,-7.14912 -23.91211,-22.65039 l 5.9668,-22.9375 c 15.32137,-9.05353 32.03515,-7.66016 32.03515,-7.66016 V 461.1797 h 0.002 v -31.33985 c 0,0 -16.71574,1.39339 -32.03711,-7.66015 l -6.16597,-22.6699 c 8.74193,-15.50129 23.91406,-22.65235 23.91406,-22.65235 l -15.66992,-27.14062 0.002,-0.002 -15.66992,-27.14062 c 0,0 -13.7807,9.56467 -31.57617,9.38476 l -16.61136,-16.7305 c -0.1799,-17.79547 9.38477,-31.57226 9.38477,-31.57226 L 509.5176,267.98628 v -0.002 l -27.14063,-15.66992 c 0,0 -7.15072,15.16997 -22.65039,23.91211 -7.68523,-2.59626 -15.5246,-4.71168 -23.47265,-6.33399 -9.04123,-15.31621 -7.65039,-32.01562 -7.65039,-32.01562 h -31.33985 v -0.002 z m 31.57617,62.125 c 89.19399,0 161.5,72.30601 161.5,161.5 0,89.19399 -72.30601,161.5 -161.5,161.5 -89.19399,0 -161.5,-72.30601 -161.5,-161.5 0,-89.19399 72.30601,-161.5 161.5,-161.5 z"
       sodipodi:nodetypes="cccccccccccccccccccccccccccccccccccccccccccccccccccccccccccccccccccccccccsssss" />
  </g>
  <g
     inkscape:groupmode="layer"
     id="g19"
     inkscape:label="Spokes copy"
     style="display:none" />
  <g
     inkscape:groupmode="layer"
     id="layer5"
     inkscape:label="Gear 2"
     style="display:none"
     sodipodi:insensitive="true">
    <path
       id="path21"
       style="fill:#000000;fill-opacity:1;stroke:#9d9d9d;stroke-width:9.55688;stroke-linecap:round;stroke-linejoin:round;stroke-dasharray:none;stroke-opacity:1;paint-order:stroke markers fill"
       d="m 398.18627,269.34547 -7.89547,41.8675 27.7025,146.90123 0.87282,-97.34939 0.87283,97.34939 27.70388,-146.90123 -7.89547,-41.8675 h -19.86089 -1.63931 z m 19.80703,192.56184 -27.7025,146.90123 7.89547,41.86749 h 19.86089 1.63931 19.86089 l 7.89547,-41.86749 -27.70388,-146.90123 -0.87283,97.34938 z" />
    <path
       id="path21-21"
       style="display:inline;fill:#000000;fill-opacity:1;stroke:#9d9d9d;stroke-width:9.55688;stroke-linecap:round;stroke-linejoin:round;stroke-dasharray:none;stroke-opacity:1;paint-order:stroke markers fill"
       d="m 243.40502,382.5879 32.31058,27.77142 141.07145,49.45955 -83.87064,-49.43058 84.74346,47.9188 -113.36826,-97.44287 -40.20605,-14.09608 -9.93044,17.20004 -0.81966,1.41968 z m 176.66696,79.12753 113.36894,97.44168 40.20605,14.09607 9.93044,-17.20004 0.81966,-1.41968 9.93044,-17.20004 -32.31057,-27.77142 -141.07214,-49.45835 83.87062,49.43058 z" />
    <path
       id="path21-77"
       style="display:inline;fill:#000000;fill-opacity:1;stroke:#9d9d9d;stroke-width:9.55688;stroke-linecap:round;stroke-linejoin:round;stroke-dasharray:none;stroke-opacity:1;paint-order:stroke markers fill"
       d="m 305.62375,305.22996 14.09607,40.20605 97.44168,113.36895 -47.91881,-84.74346 49.43059,83.87063 -49.45835,-141.07214 -27.77143,-32.31058 -17.20003,9.93045 -1.41969,0.81965 z m 113.43431,156.85993 49.45955,141.07144 27.77142,32.31058 17.20003,-9.93045 1.41969,-0.81965 17.20003,-9.93045 -14.09607,-40.20604 -97.44287,-113.36826 47.91879,84.74345 z" />
    <path
       id="path21-7"
       style="display:inline;fill:#000000;fill-opacity:1;stroke:#9d9d9d;stroke-width:9.55688;stroke-linecap:round;stroke-linejoin:round;stroke-dasharray:none;stroke-opacity:1;paint-order:stroke markers fill"
       d="m 609.53154,439.33012 -41.8675,-7.89547 -146.90123,27.7025 97.34939,0.87282 -97.34939,0.87283 146.90123,27.70388 41.8675,-7.89547 v -19.86089 -1.63931 z m -192.56184,19.80703 -146.90123,-27.7025 -41.86749,7.89547 v 19.86089 1.63931 19.86089 l 41.86749,7.89547 146.90123,-27.70388 -97.34938,-0.87283 z" />
    <path
       id="path21-2"
       style="display:inline;fill:#000000;fill-opacity:1;stroke:#9d9d9d;stroke-width:9.55688;stroke-linecap:round;stroke-linejoin:round;stroke-dasharray:none;stroke-opacity:1;paint-order:stroke markers fill"
       d="m 573.64697,346.76814 -40.20605,14.09608 -113.36895,97.44168 84.74345,-47.91881 -83.87063,49.43059 141.07214,-49.45836 32.31058,-27.77142 -9.93044,-17.20004 -0.81966,-1.41968 z M 416.78704,460.20245 275.71559,509.662 l -32.31057,27.77142 9.93044,17.20004 0.81966,1.41968 9.93044,17.20004 40.20605,-14.09607 113.36825,-97.44288 -84.74345,47.9188 z" />
    <path
       id="path21-8"
       style="display:inline;fill:#000000;fill-opacity:1;stroke:#9d9d9d;stroke-width:9.55688;stroke-linecap:round;stroke-linejoin:round;stroke-dasharray:none;stroke-opacity:1;paint-order:stroke markers fill"
       d="m 496.28903,284.54941 -27.77143,32.31058 -49.45955,141.07145 49.43058,-83.87063 -47.9188,84.74346 97.44288,-113.36826 14.09607,-40.20605 -17.20003,-9.93045 -1.41969,-0.81965 z m -79.12753,176.66696 -97.44168,113.36895 -14.09607,40.20604 17.20003,9.93045 1.41969,0.81965 17.20003,9.93045 27.77142,-32.31058 49.45836,-141.07213 -49.43059,83.87062 z" />
  </g>
  <g
     inkscape:groupmode="layer"
     id="g14"
     inkscape:label="Big Gear 2 copy"
     style="display:none">
    <path
       id="path9"
       style="fill:#000000;fill-opacity:1;stroke:#9d9d9d;stroke-width:11.6467;stroke-linecap:round;stroke-linejoin:round;stroke-dasharray:none;stroke-opacity:1;paint-order:stroke markers fill"
       d="m 389.12637,270.39038 -11.79066,41.63805 41.3694,146.09616 1.30342,-96.81588 1.30344,96.81588 41.37146,-146.09616 -11.79066,-41.63805 h -29.65917 -2.44806 z m 29.57874,191.50654 -41.3694,146.09616 11.79066,41.63804 h 29.65917 2.44806 29.65917 l 11.79066,-41.63804 -41.37146,-146.09616 -1.30344,96.81587 z" />
    <path
       id="path9-2"
       style="display:inline;fill:#000000;fill-opacity:1;stroke:#9d9d9d;stroke-width:11.6467;stroke-linecap:round;stroke-linejoin:round;stroke-dasharray:none;stroke-opacity:1;paint-order:stroke markers fill"
       d="m 264.09007,347.76653 21.10529,37.7798 132.55817,74.05301 -67.53751,-69.38083 69.38084,67.5375 -74.05155,-132.55963 -37.7798,-21.10529 -20.9722,20.9722 -1.73104,1.73104 z m 156.3309,114.50025 74.053,132.55816 37.7798,21.10529 20.9722,-20.9722 1.73104,-1.73104 20.9722,-20.9722 -21.10529,-37.7798 -132.55962,-74.05154 67.53749,69.38083 z" />
    <path
       id="path9-7"
       style="display:inline;fill:#000000;fill-opacity:1;stroke:#9d9d9d;stroke-width:11.6467;stroke-linecap:round;stroke-linejoin:round;stroke-dasharray:none;stroke-opacity:1;paint-order:stroke markers fill"
       d="m 532.25377,304.09109 -37.7798,21.10529 -74.05301,132.55817 69.38083,-67.53751 -67.5375,69.38084 132.55963,-74.05155 21.10529,-37.7798 -20.9722,-20.9722 -1.73104,-1.73104 z m -114.50025,156.3309 -132.55816,74.053 -21.10529,37.7798 20.9722,20.9722 1.73104,1.73104 20.9722,20.9722 37.7798,-21.10529 74.05154,-132.55962 -69.38083,67.53749 z" />
    <path
       id="path9-6"
       style="display:inline;fill:#000000;fill-opacity:1;stroke:#9d9d9d;stroke-width:11.6467;stroke-linecap:round;stroke-linejoin:round;stroke-dasharray:none;stroke-opacity:1;paint-order:stroke markers fill"
       d="m 609.63001,429.12746 -41.63805,-11.79066 -146.09616,41.3694 96.81588,1.30342 -96.81588,1.30344 146.09616,41.37146 41.63805,-11.79066 v -29.65917 -2.44806 z M 418.12347,458.7062 272.02731,417.3368 230.38927,429.12746 v 29.65917 2.44806 29.65917 l 41.63804,11.79066 146.09616,-41.37146 -96.81587,-1.30344 z" />
  </g>
  <g
     inkscape:groupmode="layer"
     id="g17"
     inkscape:label="Big Gear 2 separte circle"
     style="display:none"
     sodipodi:insensitive="true">
    <path
       id="path14"
       style="fill:#000000;fill-opacity:1;stroke:#9d9d9d;stroke-width:11.6467;stroke-linecap:round;stroke-linejoin:round;stroke-dasharray:none;stroke-opacity:1;paint-order:stroke markers fill"
       d="m 389.12696,270.39063 -11.09179,39.16992 a 156.39999,156.39999 0 0 0 -34.41602,14.56055 l -35.85352,-20.0293 -20.97265,20.97071 -1.73047,1.73242 -20.97266,20.9707 20.07422,35.93555 a 156.39999,156.39999 0 0 0 -14.44336,34.28711 l -39.33203,11.13867 v 29.66016 2.44727 29.66015 l 39.32031,11.13282 a 156.39999,156.39999 0 0 0 14.44141,34.3164 l -20.06055,35.91016 20.97266,20.97266 1.73047,1.73242 20.97265,20.9707 35.81055,-20.00586 a 156.39999,156.39999 0 0 0 34.47266,14.58594 l 11.07812,39.12109 h 29.65821 2.44921 29.65821 l 11.04883,-39.02148 a 156.39999,156.39999 0 0 0 34.71484,-14.56641 l 35.59766,19.88672 20.97266,-20.9707 1.73046,-1.73242 20.97266,-20.97266 -19.84375,-35.51953 a 156.39999,156.39999 0 0 0 14.68359,-34.83789 l 38.86133,-11.00196 v -29.66015 -2.44727 -29.66016 l -38.76758,-10.97851 a 156.39999,156.39999 0 0 0 -14.59765,-35.18164 l 19.66406,-35.20118 -20.97266,-20.9707 -1.73046,-1.73242 -20.97266,-20.97071 -35.29102,19.71485 a 156.39999,156.39999 0 0 0 -35.03906,-14.46094 l -11.03125,-38.95508 h -29.65821 -2.44921 z" />
    <circle
       style="display:inline;fill:#ffffff;stroke-width:0.66087"
       id="path1-2-2"
       cx="420.22546"
       cy="460.03439"
       r="129.2" />
  </g>
  <g
     inkscape:groupmode="layer"
     id="layer3"
     inkscape:label="logo"
     style="display:inline">
    <g
       id="logo"
       transform="translate(333.19072,345.62546)">
      <path
         class="cls-8"
         d="m 74.31,13.8 c 14.51,-2.28 25.97,7.37 29.16,15.32 2.36,5.88 1.82,15.94 4.45,21.74 4.08,9.02 12.89,15.36 22.24,16.31 7.69,0.78 15.83,-4.68 26.68,-1.98 11.38,2.83 24.25,16.59 17.3,34.59 -3.22,8.33 -11.82,15.36 -22.73,15.81 -7.92,0.33 -15.38,-3.38 -22.24,-2.47 -9.81,1.3 -18.47,8.96 -21.74,16.8 -2.81,6.73 -1.69,14.71 -4.45,21.25 -4.13,9.8 -18.13,19.84 -33.11,13.84 -21.18,-8.49 -21.76,-47.48 7.91,-49.42 9.52,-0.62 16.42,3.66 24.71,1.98 9.22,-1.87 16.21,-7.59 19.77,-15.81 8.28,-19.12 -5.25,-39.21 -24.71,-40.03 -10.42,-0.44 -14.99,4 -24.21,1.98 C 56.71,60.05 47.87,36.68 60,22.2 c 2.64,-3.15 8.14,-7.43 14.33,-8.4 z"
         id="path1-8"
         style="fill-rule:evenodd" />
      <path
         class="cls-5"
         d="m 129.16,22.69 c 9.25,-2.07 18.3,2.16 20.75,10.38 3.44,11.53 -5.26,25.81 -20.75,22.73 -17.02,-3.38 -15.98,-29.54 0,-33.11 z"
         id="path2"
         style="fill:#ff9200;fill-rule:evenodd" />
      <path
         class="cls-7"
         d="m 91.61,65.19 c 36.26,-5.69 39.92,47.16 7.91,50.4 -8.9,0.9 -14.04,-3.1 -22.24,-2.47 -17.46,1.34 -31.25,19.33 -23.72,38.54 3.02,7.7 11.96,17.71 25.7,17.79 4.66,0.03 11.37,-3.1 17.79,-2.96 17.64,0.36 29.14,18.26 23.23,34.59 -7.66,21.17 -39.71,21.52 -47.93,0.99 -3.17,-7.91 -1.93,-16.3 -4.45,-21.74 -3.39,-7.34 -12.12,-16.05 -24.71,-16.31 -5.62,-0.11 -11.94,3.96 -22.24,2.47 -14.22,-2.05 -25.93,-19.73 -18.78,-36.07 2.34,-5.35 9.28,-13.64 20.26,-14.82 9.59,-1.04 15.66,3.1 22.73,2.47 9.58,-0.85 19.09,-6.89 23.23,-16.8 2.85,-6.82 1.52,-14.44 3.95,-20.75 2.84,-7.38 9.74,-13.82 19.27,-15.32 z"
         id="path3"
         style="fill:#808080;fill-rule:evenodd" />
      <path
         class="cls-5"
         d="m 40.21,81.99 c 7.26,-1.75 10.78,2.64 10.87,7.91 0.18,10.77 -17.48,12.66 -17.3,0 0.06,-4.11 1.93,-6.82 6.42,-7.91 z"
         id="path4"
         style="fill:#ff9200;fill-rule:evenodd" />
      <path
         class="cls-5"
         d="m 130.65,128.94 c 8.95,-1.84 15.9,3.68 15.81,12.35 -0.13,13.88 -20.87,17.68 -25.2,4.45 -2.46,-7.5 0.4,-14.95 9.39,-16.8 z"
         id="path5"
         style="fill:#ff9200;fill-rule:evenodd" />
      <path
         class="cls-5"
         d="m 39.23,169.95 c 16.07,-2.19 32.02,13.25 24.21,31.63 -3.8,8.95 -16.95,17.35 -30.14,11.86 -20.2,-8.4 -17.04,-40.35 5.93,-43.49 z"
         id="path6"
         style="fill:#ff9200;fill-rule:evenodd" />
    </g>
  </g>
  <g
     inkscape:groupmode="layer"
     id="g27"
     inkscape:label="Gear solid orange"
     style="display:none">
    <path
       id="path22"
       style="fill:#ff9200;fill-opacity:1;stroke:#ff9200;stroke-width:9.55842;stroke-linecap:round;stroke-linejoin:round;stroke-dasharray:none;stroke-opacity:1;paint-order:stroke markers fill"
       d="m 398.18556,269.34571 -6.67774,35.41602 a 158.74547,158.74547 0 0 0 -26.43164,7.2832 l -23.63281,-27.4961 -17.19922,9.93165 -1.41992,0.81836 -17.20118,9.93164 11.95118,34.08398 a 158.74547,158.74547 0 0 0 -19.37696,19.41211 l -34.11133,-11.95898 -9.93164,17.20117 -0.81836,1.41992 -9.93164,17.19922 27.5586,23.6875 a 158.74547,158.74547 0 0 0 -7.23633,26.35547 l -35.52539,6.69922 v 19.86133 1.63867 19.86133 l 35.2207,6.64062 a 158.74547,158.74547 0 0 0 7.16406,26.73828 l -27.18164,23.36329 9.93164,17.19922 0.81836,1.41992 9.93164,17.20117 33.31641,-11.68164 a 158.74547,158.74547 0 0 0 19.80078,20.19531 l -11.58008,33.02344 17.20118,9.93164 1.41992,0.81836 17.19922,9.93164 22.76172,-26.48242 a 158.74547,158.74547 0 0 0 27.5664,7.66601 l 6.41407,34.01954 h 19.86132 1.63868 19.86133 l 6.34765,-33.65625 a 158.74547,158.74547 0 0 0 28.02149,-7.57618 l 22.37304,26.0293 17.19922,-9.93164 1.41993,-0.81836 17.20117,-9.93164 -11.24414,-32.07422 a 158.74547,158.74547 0 0 0 20.73633,-20.69922 l 32.04492,11.23633 9.93164,-17.20117 0.81836,-1.41992 9.93164,-17.19922 -25.9668,-22.31836 a 158.74547,158.74547 0 0 0 7.6211,-28.09766 l 33.54882,-6.32617 v -19.86133 -1.63867 -19.86133 l -33.59765,-6.33594 a 158.74547,158.74547 0 0 0 -7.65625,-28.01367 l 26.05078,-22.39258 -9.93164,-17.19922 -0.81836,-1.41992 -9.93164,-17.20117 -32.75196,11.48242 a 158.74547,158.74547 0 0 0 -20.32226,-20.11133 l 11.53711,-32.9082 -17.20117,-9.93164 -1.41993,-0.81836 -17.19922,-9.93165 -22.97461,26.73047 a 158.74547,158.74547 0 0 0 -27.19336,-7.07812 l -6.57421,-34.85547 h -19.86133 -1.63868 z m 21.48242,56.32031 A 135.01303,135.01302 0 0 1 554.6797,460.6797 135.01303,135.01302 0 0 1 419.66798,595.69142 135.01303,135.01302 0 0 1 284.6543,460.6797 135.01303,135.01302 0 0 1 419.66798,325.66602 Z" />
  </g>
  <g
     inkscape:groupmode="layer"
     id="g31"
     inkscape:label="Gear solid orange thin"
     style="display:none">
    <path
       id="path31"
       style="display:none;fill:#ffffff;fill-opacity:1;stroke:#ff9200;stroke-width:9.55842;stroke-linecap:round;stroke-linejoin:round;stroke-dasharray:none;stroke-opacity:1;paint-order:stroke markers fill"
       d="m 398.18556,269.34571 -6.67774,35.41602 a 158.74547,158.74547 0 0 0 -26.43164,7.2832 l -23.63281,-27.4961 -17.19922,9.93165 -1.41992,0.81836 -17.20118,9.93164 11.95118,34.08398 a 158.74547,158.74547 0 0 0 -19.37696,19.41211 l -34.11133,-11.95898 -9.93164,17.20117 -0.81836,1.41992 -9.93164,17.19922 27.5586,23.6875 a 158.74547,158.74547 0 0 0 -7.23633,26.35547 l -35.52539,6.69922 v 19.86133 1.63867 19.86133 l 35.2207,6.64062 a 158.74547,158.74547 0 0 0 7.16406,26.73828 l -27.18164,23.36329 9.93164,17.19922 0.81836,1.41992 9.93164,17.20117 33.31641,-11.68164 a 158.74547,158.74547 0 0 0 19.80078,20.19531 l -11.58008,33.02344 17.20118,9.93164 1.41992,0.81836 17.19922,9.93164 22.76172,-26.48242 a 158.74547,158.74547 0 0 0 27.5664,7.66601 l 6.41407,34.01954 h 19.86132 1.63868 19.86133 l 6.34765,-33.65625 a 158.74547,158.74547 0 0 0 28.02149,-7.57618 l 22.37304,26.0293 17.19922,-9.93164 1.41993,-0.81836 17.20117,-9.93164 -11.24414,-32.07422 a 158.74547,158.74547 0 0 0 20.73633,-20.69922 l 32.04492,11.23633 9.93164,-17.20117 0.81836,-1.41992 9.93164,-17.19922 -25.9668,-22.31836 a 158.74547,158.74547 0 0 0 7.6211,-28.09766 l 33.54882,-6.32617 v -19.86133 -1.63867 -19.86133 l -33.59765,-6.33594 a 158.74547,158.74547 0 0 0 -7.65625,-28.01367 l 26.05078,-22.39258 -9.93164,-17.19922 -0.81836,-1.41992 -9.93164,-17.20117 -32.75196,11.48242 a 158.74547,158.74547 0 0 0 -20.32226,-20.11133 l 11.53711,-32.9082 -17.20117,-9.93164 -1.41993,-0.81836 -17.19922,-9.93165 -22.97461,26.73047 a 158.74547,158.74547 0 0 0 -27.19336,-7.07812 l -6.57421,-34.85547 h -19.86133 -1.63868 z m 21.48242,56.32031 A 135.01303,135.01302 0 0 1 554.6797,460.6797 135.01303,135.01302 0 0 1 419.66798,595.69142 135.01303,135.01302 0 0 1 284.6543,460.6797 135.01303,135.01302 0 0 1 419.66798,325.66602 Z" />
  </g>
  <g
     inkscape:groupmode="layer"
     id="g38"
     inkscape:label="Gear solid orange thick"
     style="display:none;stroke-width:30.2362;stroke-dasharray:none">
    <path
       id="path38"
       style="fill:#ffffff;fill-opacity:1;stroke:#ff9200;stroke-width:30.2362;stroke-linecap:round;stroke-linejoin:round;stroke-dasharray:none;stroke-opacity:1;paint-order:stroke markers fill"
       d="m 398.18556,269.34571 -6.67774,35.41602 a 158.74547,158.74547 0 0 0 -26.43164,7.2832 l -23.63281,-27.4961 -17.19922,9.93165 -1.41992,0.81836 -17.20118,9.93164 11.95118,34.08398 a 158.74547,158.74547 0 0 0 -19.37696,19.41211 l -34.11133,-11.95898 -9.93164,17.20117 -0.81836,1.41992 -9.93164,17.19922 27.5586,23.6875 a 158.74547,158.74547 0 0 0 -7.23633,26.35547 l -35.52539,6.69922 v 19.86133 1.63867 19.86133 l 35.2207,6.64062 a 158.74547,158.74547 0 0 0 7.16406,26.73828 l -27.18164,23.36329 9.93164,17.19922 0.81836,1.41992 9.93164,17.20117 33.31641,-11.68164 a 158.74547,158.74547 0 0 0 19.80078,20.19531 l -11.58008,33.02344 17.20118,9.93164 1.41992,0.81836 17.19922,9.93164 22.76172,-26.48242 a 158.74547,158.74547 0 0 0 27.5664,7.66601 l 6.41407,34.01954 h 19.86132 1.63868 19.86133 l 6.34765,-33.65625 a 158.74547,158.74547 0 0 0 28.02149,-7.57618 l 22.37304,26.0293 17.19922,-9.93164 1.41993,-0.81836 17.20117,-9.93164 -11.24414,-32.07422 a 158.74547,158.74547 0 0 0 20.73633,-20.69922 l 32.04492,11.23633 9.93164,-17.20117 0.81836,-1.41992 9.93164,-17.19922 -25.9668,-22.31836 a 158.74547,158.74547 0 0 0 7.6211,-28.09766 l 33.54882,-6.32617 v -19.86133 -1.63867 -19.86133 l -33.59765,-6.33594 a 158.74547,158.74547 0 0 0 -7.65625,-28.01367 l 26.05078,-22.39258 -9.93164,-17.19922 -0.81836,-1.41992 -9.93164,-17.20117 -32.75196,11.48242 a 158.74547,158.74547 0 0 0 -20.32226,-20.11133 l 11.53711,-32.9082 -17.20117,-9.93164 -1.41993,-0.81836 -17.19922,-9.93165 -22.97461,26.73047 a 158.74547,158.74547 0 0 0 -27.19336,-7.07812 l -6.57421,-34.85547 h -19.86133 -1.63868 z m 21.48242,56.32031 A 135.01303,135.01302 0 0 1 554.6797,460.6797 135.01303,135.01302 0 0 1 419.66798,595.69142 135.01303,135.01302 0 0 1 284.6543,460.6797 135.01303,135.01302 0 0 1 419.66798,325.66602 Z" />
  </g>
  <g
     inkscape:groupmode="layer"
     id="g28"
     inkscape:label="Gear solid dark orange"
     style="display:none">
    <path
       id="path28"
       style="display:none;fill:#973300;fill-opacity:1;stroke:#973300;stroke-width:9.55842;stroke-linecap:round;stroke-linejoin:round;stroke-dasharray:none;stroke-opacity:1;paint-order:stroke markers fill"
       d="m 398.18556,269.34571 -6.67774,35.41602 a 158.74547,158.74547 0 0 0 -26.43164,7.2832 l -23.63281,-27.4961 -17.19922,9.93165 -1.41992,0.81836 -17.20118,9.93164 11.95118,34.08398 a 158.74547,158.74547 0 0 0 -19.37696,19.41211 l -34.11133,-11.95898 -9.93164,17.20117 -0.81836,1.41992 -9.93164,17.19922 27.5586,23.6875 a 158.74547,158.74547 0 0 0 -7.23633,26.35547 l -35.52539,6.69922 v 19.86133 1.63867 19.86133 l 35.2207,6.64062 a 158.74547,158.74547 0 0 0 7.16406,26.73828 l -27.18164,23.36329 9.93164,17.19922 0.81836,1.41992 9.93164,17.20117 33.31641,-11.68164 a 158.74547,158.74547 0 0 0 19.80078,20.19531 l -11.58008,33.02344 17.20118,9.93164 1.41992,0.81836 17.19922,9.93164 22.76172,-26.48242 a 158.74547,158.74547 0 0 0 27.5664,7.66601 l 6.41407,34.01954 h 19.86132 1.63868 19.86133 l 6.34765,-33.65625 a 158.74547,158.74547 0 0 0 28.02149,-7.57618 l 22.37304,26.0293 17.19922,-9.93164 1.41993,-0.81836 17.20117,-9.93164 -11.24414,-32.07422 a 158.74547,158.74547 0 0 0 20.73633,-20.69922 l 32.04492,11.23633 9.93164,-17.20117 0.81836,-1.41992 9.93164,-17.19922 -25.9668,-22.31836 a 158.74547,158.74547 0 0 0 7.6211,-28.09766 l 33.54882,-6.32617 v -19.86133 -1.63867 -19.86133 l -33.59765,-6.33594 a 158.74547,158.74547 0 0 0 -7.65625,-28.01367 l 26.05078,-22.39258 -9.93164,-17.19922 -0.81836,-1.41992 -9.93164,-17.20117 -32.75196,11.48242 a 158.74547,158.74547 0 0 0 -20.32226,-20.11133 l 11.53711,-32.9082 -17.20117,-9.93164 -1.41993,-0.81836 -17.19922,-9.93165 -22.97461,26.73047 a 158.74547,158.74547 0 0 0 -27.19336,-7.07812 l -6.57421,-34.85547 h -19.86133 -1.63868 z m 21.48242,56.32031 A 135.01303,135.01302 0 0 1 554.6797,460.6797 135.01303,135.01302 0 0 1 419.66798,595.69142 135.01303,135.01302 0 0 1 284.6543,460.6797 135.01303,135.01302 0 0 1 419.66798,325.66602 Z" />
  </g>
  <g
     inkscape:groupmode="layer"
     id="g32"
     inkscape:label="Gear solid dark orange thin"
     style="display:none;fill:#ffffff;fill-opacity:1">
    <path
       id="path32"
       style="display:inline;fill:#ffffff;fill-opacity:1;stroke:#973300;stroke-width:9.55842;stroke-linecap:round;stroke-linejoin:round;stroke-dasharray:none;stroke-opacity:1;paint-order:stroke markers fill"
       d="m 398.18556,269.34571 -6.67774,35.41602 a 158.74547,158.74547 0 0 0 -26.43164,7.2832 l -23.63281,-27.4961 -17.19922,9.93165 -1.41992,0.81836 -17.20118,9.93164 11.95118,34.08398 a 158.74547,158.74547 0 0 0 -19.37696,19.41211 l -34.11133,-11.95898 -9.93164,17.20117 -0.81836,1.41992 -9.93164,17.19922 27.5586,23.6875 a 158.74547,158.74547 0 0 0 -7.23633,26.35547 l -35.52539,6.69922 v 19.86133 1.63867 19.86133 l 35.2207,6.64062 a 158.74547,158.74547 0 0 0 7.16406,26.73828 l -27.18164,23.36329 9.93164,17.19922 0.81836,1.41992 9.93164,17.20117 33.31641,-11.68164 a 158.74547,158.74547 0 0 0 19.80078,20.19531 l -11.58008,33.02344 17.20118,9.93164 1.41992,0.81836 17.19922,9.93164 22.76172,-26.48242 a 158.74547,158.74547 0 0 0 27.5664,7.66601 l 6.41407,34.01954 h 19.86132 1.63868 19.86133 l 6.34765,-33.65625 a 158.74547,158.74547 0 0 0 28.02149,-7.57618 l 22.37304,26.0293 17.19922,-9.93164 1.41993,-0.81836 17.20117,-9.93164 -11.24414,-32.07422 a 158.74547,158.74547 0 0 0 20.73633,-20.69922 l 32.04492,11.23633 9.93164,-17.20117 0.81836,-1.41992 9.93164,-17.19922 -25.9668,-22.31836 a 158.74547,158.74547 0 0 0 7.6211,-28.09766 l 33.54882,-6.32617 v -19.86133 -1.63867 -19.86133 l -33.59765,-6.33594 a 158.74547,158.74547 0 0 0 -7.65625,-28.01367 l 26.05078,-22.39258 -9.93164,-17.19922 -0.81836,-1.41992 -9.93164,-17.20117 -32.75196,11.48242 a 158.74547,158.74547 0 0 0 -20.32226,-20.11133 l 11.53711,-32.9082 -17.20117,-9.93164 -1.41993,-0.81836 -17.19922,-9.93165 -22.97461,26.73047 a 158.74547,158.74547 0 0 0 -27.19336,-7.07812 l -6.57421,-34.85547 h -19.86133 -1.63868 z m 21.48242,56.32031 A 135.01303,135.01302 0 0 1 554.6797,460.6797 135.01303,135.01302 0 0 1 419.66798,595.69142 135.01303,135.01302 0 0 1 284.6543,460.6797 135.01303,135.01302 0 0 1 419.66798,325.66602 Z" />
  </g>
  <g
     inkscape:groupmode="layer"
     id="g37"
     inkscape:label="Gear solid dark orange thick"
     style="display:none;fill:#ffffff;fill-opacity:1">
    <path
       id="path37"
       style="display:inline;fill:#ffffff;fill-opacity:1;stroke:#973300;stroke-width:30.2362;stroke-linecap:round;stroke-linejoin:round;stroke-dasharray:none;stroke-opacity:1;paint-order:stroke markers fill"
       d="m 398.18556,269.34571 -6.67774,35.41602 a 158.74547,158.74547 0 0 0 -26.43164,7.2832 l -23.63281,-27.4961 -17.19922,9.93165 -1.41992,0.81836 -17.20118,9.93164 11.95118,34.08398 a 158.74547,158.74547 0 0 0 -19.37696,19.41211 l -34.11133,-11.95898 -9.93164,17.20117 -0.81836,1.41992 -9.93164,17.19922 27.5586,23.6875 a 158.74547,158.74547 0 0 0 -7.23633,26.35547 l -35.52539,6.69922 v 19.86133 1.63867 19.86133 l 35.2207,6.64062 a 158.74547,158.74547 0 0 0 7.16406,26.73828 l -27.18164,23.36329 9.93164,17.19922 0.81836,1.41992 9.93164,17.20117 33.31641,-11.68164 a 158.74547,158.74547 0 0 0 19.80078,20.19531 l -11.58008,33.02344 17.20118,9.93164 1.41992,0.81836 17.19922,9.93164 22.76172,-26.48242 a 158.74547,158.74547 0 0 0 27.5664,7.66601 l 6.41407,34.01954 h 19.86132 1.63868 19.86133 l 6.34765,-33.65625 a 158.74547,158.74547 0 0 0 28.02149,-7.57618 l 22.37304,26.0293 17.19922,-9.93164 1.41993,-0.81836 17.20117,-9.93164 -11.24414,-32.07422 a 158.74547,158.74547 0 0 0 20.73633,-20.69922 l 32.04492,11.23633 9.93164,-17.20117 0.81836,-1.41992 9.93164,-17.19922 -25.9668,-22.31836 a 158.74547,158.74547 0 0 0 7.6211,-28.09766 l 33.54882,-6.32617 v -19.86133 -1.63867 -19.86133 l -33.59765,-6.33594 a 158.74547,158.74547 0 0 0 -7.65625,-28.01367 l 26.05078,-22.39258 -9.93164,-17.19922 -0.81836,-1.41992 -9.93164,-17.20117 -32.75196,11.48242 a 158.74547,158.74547 0 0 0 -20.32226,-20.11133 l 11.53711,-32.9082 -17.20117,-9.93164 -1.41993,-0.81836 -17.19922,-9.93165 -22.97461,26.73047 a 158.74547,158.74547 0 0 0 -27.19336,-7.07812 l -6.57421,-34.85547 h -19.86133 -1.63868 z m 21.48242,56.32031 A 135.01303,135.01302 0 0 1 554.6797,460.6797 135.01303,135.01302 0 0 1 419.66798,595.69142 135.01303,135.01302 0 0 1 284.6543,460.6797 135.01303,135.01302 0 0 1 419.66798,325.66602 Z" />
  </g>
  <g
     inkscape:groupmode="layer"
     id="g29"
     inkscape:label="Gear solid gray"
     style="display:none">
    <path
       id="path29"
       style="display:inline;fill:#808080;fill-opacity:1;stroke:#808080;stroke-width:9.55842;stroke-linecap:round;stroke-linejoin:round;stroke-dasharray:none;stroke-opacity:1;paint-order:stroke markers fill"
       d="m 398.18556,269.34571 -6.67774,35.41602 a 158.74547,158.74547 0 0 0 -26.43164,7.2832 l -23.63281,-27.4961 -17.19922,9.93165 -1.41992,0.81836 -17.20118,9.93164 11.95118,34.08398 a 158.74547,158.74547 0 0 0 -19.37696,19.41211 l -34.11133,-11.95898 -9.93164,17.20117 -0.81836,1.41992 -9.93164,17.19922 27.5586,23.6875 a 158.74547,158.74547 0 0 0 -7.23633,26.35547 l -35.52539,6.69922 v 19.86133 1.63867 19.86133 l 35.2207,6.64062 a 158.74547,158.74547 0 0 0 7.16406,26.73828 l -27.18164,23.36329 9.93164,17.19922 0.81836,1.41992 9.93164,17.20117 33.31641,-11.68164 a 158.74547,158.74547 0 0 0 19.80078,20.19531 l -11.58008,33.02344 17.20118,9.93164 1.41992,0.81836 17.19922,9.93164 22.76172,-26.48242 a 158.74547,158.74547 0 0 0 27.5664,7.66601 l 6.41407,34.01954 h 19.86132 1.63868 19.86133 l 6.34765,-33.65625 a 158.74547,158.74547 0 0 0 28.02149,-7.57618 l 22.37304,26.0293 17.19922,-9.93164 1.41993,-0.81836 17.20117,-9.93164 -11.24414,-32.07422 a 158.74547,158.74547 0 0 0 20.73633,-20.69922 l 32.04492,11.23633 9.93164,-17.20117 0.81836,-1.41992 9.93164,-17.19922 -25.9668,-22.31836 a 158.74547,158.74547 0 0 0 7.6211,-28.09766 l 33.54882,-6.32617 v -19.86133 -1.63867 -19.86133 l -33.59765,-6.33594 a 158.74547,158.74547 0 0 0 -7.65625,-28.01367 l 26.05078,-22.39258 -9.93164,-17.19922 -0.81836,-1.41992 -9.93164,-17.20117 -32.75196,11.48242 a 158.74547,158.74547 0 0 0 -20.32226,-20.11133 l 11.53711,-32.9082 -17.20117,-9.93164 -1.41993,-0.81836 -17.19922,-9.93165 -22.97461,26.73047 a 158.74547,158.74547 0 0 0 -27.19336,-7.07812 l -6.57421,-34.85547 h -19.86133 -1.63868 z m 21.48242,56.32031 A 135.01303,135.01302 0 0 1 554.6797,460.6797 135.01303,135.01302 0 0 1 419.66798,595.69142 135.01303,135.01302 0 0 1 284.6543,460.6797 135.01303,135.01302 0 0 1 419.66798,325.66602 Z" />
  </g>
  <g
     inkscape:groupmode="layer"
     id="g33"
     inkscape:label="Gear solid gray thin"
     style="display:none">
    <path
       id="path33"
       style="display:inline;fill:#ffffff;fill-opacity:1;stroke:#808080;stroke-width:9.55842;stroke-linecap:round;stroke-linejoin:round;stroke-dasharray:none;stroke-opacity:1;paint-order:stroke markers fill"
       d="m 398.18556,269.34571 -6.67774,35.41602 a 158.74547,158.74547 0 0 0 -26.43164,7.2832 l -23.63281,-27.4961 -17.19922,9.93165 -1.41992,0.81836 -17.20118,9.93164 11.95118,34.08398 a 158.74547,158.74547 0 0 0 -19.37696,19.41211 l -34.11133,-11.95898 -9.93164,17.20117 -0.81836,1.41992 -9.93164,17.19922 27.5586,23.6875 a 158.74547,158.74547 0 0 0 -7.23633,26.35547 l -35.52539,6.69922 v 19.86133 1.63867 19.86133 l 35.2207,6.64062 a 158.74547,158.74547 0 0 0 7.16406,26.73828 l -27.18164,23.36329 9.93164,17.19922 0.81836,1.41992 9.93164,17.20117 33.31641,-11.68164 a 158.74547,158.74547 0 0 0 19.80078,20.19531 l -11.58008,33.02344 17.20118,9.93164 1.41992,0.81836 17.19922,9.93164 22.76172,-26.48242 a 158.74547,158.74547 0 0 0 27.5664,7.66601 l 6.41407,34.01954 h 19.86132 1.63868 19.86133 l 6.34765,-33.65625 a 158.74547,158.74547 0 0 0 28.02149,-7.57618 l 22.37304,26.0293 17.19922,-9.93164 1.41993,-0.81836 17.20117,-9.93164 -11.24414,-32.07422 a 158.74547,158.74547 0 0 0 20.73633,-20.69922 l 32.04492,11.23633 9.93164,-17.20117 0.81836,-1.41992 9.93164,-17.19922 -25.9668,-22.31836 a 158.74547,158.74547 0 0 0 7.6211,-28.09766 l 33.54882,-6.32617 v -19.86133 -1.63867 -19.86133 l -33.59765,-6.33594 a 158.74547,158.74547 0 0 0 -7.65625,-28.01367 l 26.05078,-22.39258 -9.93164,-17.19922 -0.81836,-1.41992 -9.93164,-17.20117 -32.75196,11.48242 a 158.74547,158.74547 0 0 0 -20.32226,-20.11133 l 11.53711,-32.9082 -17.20117,-9.93164 -1.41993,-0.81836 -17.19922,-9.93165 -22.97461,26.73047 a 158.74547,158.74547 0 0 0 -27.19336,-7.07812 l -6.57421,-34.85547 h -19.86133 -1.63868 z m 21.48242,56.32031 A 135.01303,135.01302 0 0 1 554.6797,460.6797 135.01303,135.01302 0 0 1 419.66798,595.69142 135.01303,135.01302 0 0 1 284.6543,460.6797 135.01303,135.01302 0 0 1 419.66798,325.66602 Z" />
  </g>
  <g
     inkscape:groupmode="layer"
     id="g36"
     inkscape:label="Gear solid gray thick"
     style="display:none">
    <path
       id="path36"
       style="display:inline;fill:#ffffff;fill-opacity:1;stroke:#808080;stroke-width:30.2362;stroke-linecap:round;stroke-linejoin:round;stroke-dasharray:none;stroke-opacity:1;paint-order:stroke markers fill"
       d="m 398.18556,269.34571 -6.67774,35.41602 a 158.74547,158.74547 0 0 0 -26.43164,7.2832 l -23.63281,-27.4961 -17.19922,9.93165 -1.41992,0.81836 -17.20118,9.93164 11.95118,34.08398 a 158.74547,158.74547 0 0 0 -19.37696,19.41211 l -34.11133,-11.95898 -9.93164,17.20117 -0.81836,1.41992 -9.93164,17.19922 27.5586,23.6875 a 158.74547,158.74547 0 0 0 -7.23633,26.35547 l -35.52539,6.69922 v 19.86133 1.63867 19.86133 l 35.2207,6.64062 a 158.74547,158.74547 0 0 0 7.16406,26.73828 l -27.18164,23.36329 9.93164,17.19922 0.81836,1.41992 9.93164,17.20117 33.31641,-11.68164 a 158.74547,158.74547 0 0 0 19.80078,20.19531 l -11.58008,33.02344 17.20118,9.93164 1.41992,0.81836 17.19922,9.93164 22.76172,-26.48242 a 158.74547,158.74547 0 0 0 27.5664,7.66601 l 6.41407,34.01954 h 19.86132 1.63868 19.86133 l 6.34765,-33.65625 a 158.74547,158.74547 0 0 0 28.02149,-7.57618 l 22.37304,26.0293 17.19922,-9.93164 1.41993,-0.81836 17.20117,-9.93164 -11.24414,-32.07422 a 158.74547,158.74547 0 0 0 20.73633,-20.69922 l 32.04492,11.23633 9.93164,-17.20117 0.81836,-1.41992 9.93164,-17.19922 -25.9668,-22.31836 a 158.74547,158.74547 0 0 0 7.6211,-28.09766 l 33.54882,-6.32617 v -19.86133 -1.63867 -19.86133 l -33.59765,-6.33594 a 158.74547,158.74547 0 0 0 -7.65625,-28.01367 l 26.05078,-22.39258 -9.93164,-17.19922 -0.81836,-1.41992 -9.93164,-17.20117 -32.75196,11.48242 a 158.74547,158.74547 0 0 0 -20.32226,-20.11133 l 11.53711,-32.9082 -17.20117,-9.93164 -1.41993,-0.81836 -17.19922,-9.93165 -22.97461,26.73047 a 158.74547,158.74547 0 0 0 -27.19336,-7.07812 l -6.57421,-34.85547 h -19.86133 -1.63868 z m 21.48242,56.32031 A 135.01303,135.01302 0 0 1 554.6797,460.6797 135.01303,135.01302 0 0 1 419.66798,595.69142 135.01303,135.01302 0 0 1 284.6543,460.6797 135.01303,135.01302 0 0 1 419.66798,325.66602 Z" />
  </g>
  <g
     inkscape:groupmode="layer"
     id="g30"
     inkscape:label="Gear solid black"
     style="display:none">
    <path
       id="path30"
       style="display:inline;fill:#000000;fill-opacity:1;stroke:#000000;stroke-width:9.55842;stroke-linecap:round;stroke-linejoin:round;stroke-dasharray:none;stroke-opacity:1;paint-order:stroke markers fill"
       d="m 398.18556,269.34571 -6.67774,35.41602 a 158.74547,158.74547 0 0 0 -26.43164,7.2832 l -23.63281,-27.4961 -17.19922,9.93165 -1.41992,0.81836 -17.20118,9.93164 11.95118,34.08398 a 158.74547,158.74547 0 0 0 -19.37696,19.41211 l -34.11133,-11.95898 -9.93164,17.20117 -0.81836,1.41992 -9.93164,17.19922 27.5586,23.6875 a 158.74547,158.74547 0 0 0 -7.23633,26.35547 l -35.52539,6.69922 v 19.86133 1.63867 19.86133 l 35.2207,6.64062 a 158.74547,158.74547 0 0 0 7.16406,26.73828 l -27.18164,23.36329 9.93164,17.19922 0.81836,1.41992 9.93164,17.20117 33.31641,-11.68164 a 158.74547,158.74547 0 0 0 19.80078,20.19531 l -11.58008,33.02344 17.20118,9.93164 1.41992,0.81836 17.19922,9.93164 22.76172,-26.48242 a 158.74547,158.74547 0 0 0 27.5664,7.66601 l 6.41407,34.01954 h 19.86132 1.63868 19.86133 l 6.34765,-33.65625 a 158.74547,158.74547 0 0 0 28.02149,-7.57618 l 22.37304,26.0293 17.19922,-9.93164 1.41993,-0.81836 17.20117,-9.93164 -11.24414,-32.07422 a 158.74547,158.74547 0 0 0 20.73633,-20.69922 l 32.04492,11.23633 9.93164,-17.20117 0.81836,-1.41992 9.93164,-17.19922 -25.9668,-22.31836 a 158.74547,158.74547 0 0 0 7.6211,-28.09766 l 33.54882,-6.32617 v -19.86133 -1.63867 -19.86133 l -33.59765,-6.33594 a 158.74547,158.74547 0 0 0 -7.65625,-28.01367 l 26.05078,-22.39258 -9.93164,-17.19922 -0.81836,-1.41992 -9.93164,-17.20117 -32.75196,11.48242 a 158.74547,158.74547 0 0 0 -20.32226,-20.11133 l 11.53711,-32.9082 -17.20117,-9.93164 -1.41993,-0.81836 -17.19922,-9.93165 -22.97461,26.73047 a 158.74547,158.74547 0 0 0 -27.19336,-7.07812 l -6.57421,-34.85547 h -19.86133 -1.63868 z m 21.48242,56.32031 A 135.01303,135.01302 0 0 1 554.6797,460.6797 135.01303,135.01302 0 0 1 419.66798,595.69142 135.01303,135.01302 0 0 1 284.6543,460.6797 135.01303,135.01302 0 0 1 419.66798,325.66602 Z" />
  </g>
  <g
     inkscape:groupmode="layer"
     id="g40"
     inkscape:label="Gear solid black copy"
     style="display:none">
    <path
       id="path40"
       style="display:inline;fill:#ff9200;fill-opacity:1;stroke:#ff9200;stroke-width:9.44882;stroke-linecap:round;stroke-linejoin:round;stroke-dasharray:none;stroke-opacity:1;paint-order:stroke markers fill"
       d="m 396.0658,249.80255 -7.36222,39.04616 a 175.01688,175.01688 0 0 0 -29.14088,8.02972 l -26.05517,-30.31445 -18.96214,10.94965 -1.56546,0.90223 -18.96431,10.94965 13.17618,37.57758 a 175.01688,175.01688 0 0 0 -21.3631,21.40185 l -37.60773,-13.18478 -10.94965,18.9643 -0.90223,1.56546 -10.94964,18.96214 30.38336,26.11546 a 175.01688,175.01688 0 0 0 -7.97805,29.05692 l -39.16674,7.38589 v 21.8971 1.80665 21.8971 l 38.83081,7.32129 a 175.01688,175.01688 0 0 0 7.89839,29.47896 l -29.96777,25.75802 10.94964,18.96214 0.90223,1.56546 10.94965,18.9643 36.73134,-12.87901 a 175.01688,175.01688 0 0 0 21.83036,22.26532 l -12.76705,36.40834 18.96431,10.94965 1.56546,0.90223 18.96214,10.94964 25.09479,-29.19688 a 175.01688,175.01688 0 0 0 30.39196,8.45179 l 7.07152,37.50653 h 21.89709 1.80666 21.8971 l 6.9983,-37.10601 a 175.01688,175.01688 0 0 0 30.89368,-8.35274 l 24.66628,28.69731 18.96214,-10.94964 1.56547,-0.90223 18.9643,-10.94965 -12.39667,-35.36182 a 175.01688,175.01688 0 0 0 22.86181,-22.82089 l 35.32951,12.38806 10.94965,-18.9643 0.90223,-1.56546 10.94964,-18.96214 -28.6284,-24.60599 a 175.01688,175.01688 0 0 0 8.40226,-30.97767 l 36.98757,-6.97461 v -21.8971 -1.80665 -21.8971 l -37.0414,-6.98538 a 175.01688,175.01688 0 0 0 -8.44101,-30.88507 l 28.72098,-24.68782 -10.94964,-18.96214 -0.90223,-1.56546 -10.94965,-18.9643 -36.10902,12.65937 a 175.01688,175.01688 0 0 0 -22.4053,-22.17273 l 12.71967,-36.28129 -18.96429,-10.94965 -1.56548,-0.90223 -18.96214,-10.94965 -25.32951,29.47035 a 175.01688,175.01688 0 0 0 -29.98068,-7.80363 l -7.24806,-38.42815 h -21.89711 -1.80666 z m 23.68436,62.09313 A 148.85186,148.85185 0 0 1 568.60058,460.74827 148.85186,148.85185 0 0 1 419.75016,609.59868 148.85186,148.85185 0 0 1 270.89757,460.74827 148.85186,148.85185 0 0 1 419.75016,311.89568 Z" />
    <circle
       style="fill:none;fill-opacity:1;stroke:#000000;stroke-width:15.1181;stroke-linecap:round;stroke-linejoin:round;stroke-dasharray:none;stroke-opacity:1;paint-order:stroke markers fill"
       id="path41"
       cx="419.60654"
       cy="460.84445"
       r="126.69437" />
  </g>
  <g
     inkscape:groupmode="layer"
     id="g34"
     inkscape:label="Gear solid black thin"
     style="display:none">
    <path
       id="path34"
       style="display:inline;fill:#ffffff;fill-opacity:1;stroke:#000000;stroke-width:9.55842;stroke-linecap:round;stroke-linejoin:round;stroke-dasharray:none;stroke-opacity:1;paint-order:stroke markers fill"
       d="m 398.18556,269.34571 -6.67774,35.41602 a 158.74547,158.74547 0 0 0 -26.43164,7.2832 l -23.63281,-27.4961 -17.19922,9.93165 -1.41992,0.81836 -17.20118,9.93164 11.95118,34.08398 a 158.74547,158.74547 0 0 0 -19.37696,19.41211 l -34.11133,-11.95898 -9.93164,17.20117 -0.81836,1.41992 -9.93164,17.19922 27.5586,23.6875 a 158.74547,158.74547 0 0 0 -7.23633,26.35547 l -35.52539,6.69922 v 19.86133 1.63867 19.86133 l 35.2207,6.64062 a 158.74547,158.74547 0 0 0 7.16406,26.73828 l -27.18164,23.36329 9.93164,17.19922 0.81836,1.41992 9.93164,17.20117 33.31641,-11.68164 a 158.74547,158.74547 0 0 0 19.80078,20.19531 l -11.58008,33.02344 17.20118,9.93164 1.41992,0.81836 17.19922,9.93164 22.76172,-26.48242 a 158.74547,158.74547 0 0 0 27.5664,7.66601 l 6.41407,34.01954 h 19.86132 1.63868 19.86133 l 6.34765,-33.65625 a 158.74547,158.74547 0 0 0 28.02149,-7.57618 l 22.37304,26.0293 17.19922,-9.93164 1.41993,-0.81836 17.20117,-9.93164 -11.24414,-32.07422 a 158.74547,158.74547 0 0 0 20.73633,-20.69922 l 32.04492,11.23633 9.93164,-17.20117 0.81836,-1.41992 9.93164,-17.19922 -25.9668,-22.31836 a 158.74547,158.74547 0 0 0 7.6211,-28.09766 l 33.54882,-6.32617 v -19.86133 -1.63867 -19.86133 l -33.59765,-6.33594 a 158.74547,158.74547 0 0 0 -7.65625,-28.01367 l 26.05078,-22.39258 -9.93164,-17.19922 -0.81836,-1.41992 -9.93164,-17.20117 -32.75196,11.48242 a 158.74547,158.74547 0 0 0 -20.32226,-20.11133 l 11.53711,-32.9082 -17.20117,-9.93164 -1.41993,-0.81836 -17.19922,-9.93165 -22.97461,26.73047 a 158.74547,158.74547 0 0 0 -27.19336,-7.07812 l -6.57421,-34.85547 h -19.86133 -1.63868 z m 21.48242,56.32031 A 135.01303,135.01302 0 0 1 554.6797,460.6797 135.01303,135.01302 0 0 1 419.66798,595.69142 135.01303,135.01302 0 0 1 284.6543,460.6797 135.01303,135.01302 0 0 1 419.66798,325.66602 Z" />
  </g>
  <g
     inkscape:groupmode="layer"
     id="g35"
     inkscape:label="Gear solid black thick"
     style="display:none">
    <path
       id="path35"
       style="display:inline;fill:#ffffff;fill-opacity:1;stroke:#000000;stroke-width:30.2362;stroke-linecap:round;stroke-linejoin:round;stroke-dasharray:none;stroke-opacity:1;paint-order:stroke markers fill"
       d="m 398.18556,269.34571 -6.67774,35.41602 a 158.74547,158.74547 0 0 0 -26.43164,7.2832 l -23.63281,-27.4961 -17.19922,9.93165 -1.41992,0.81836 -17.20118,9.93164 11.95118,34.08398 a 158.74547,158.74547 0 0 0 -19.37696,19.41211 l -34.11133,-11.95898 -9.93164,17.20117 -0.81836,1.41992 -9.93164,17.19922 27.5586,23.6875 a 158.74547,158.74547 0 0 0 -7.23633,26.35547 l -35.52539,6.69922 v 19.86133 1.63867 19.86133 l 35.2207,6.64062 a 158.74547,158.74547 0 0 0 7.16406,26.73828 l -27.18164,23.36329 9.93164,17.19922 0.81836,1.41992 9.93164,17.20117 33.31641,-11.68164 a 158.74547,158.74547 0 0 0 19.80078,20.19531 l -11.58008,33.02344 17.20118,9.93164 1.41992,0.81836 17.19922,9.93164 22.76172,-26.48242 a 158.74547,158.74547 0 0 0 27.5664,7.66601 l 6.41407,34.01954 h 19.86132 1.63868 19.86133 l 6.34765,-33.65625 a 158.74547,158.74547 0 0 0 28.02149,-7.57618 l 22.37304,26.0293 17.19922,-9.93164 1.41993,-0.81836 17.20117,-9.93164 -11.24414,-32.07422 a 158.74547,158.74547 0 0 0 20.73633,-20.69922 l 32.04492,11.23633 9.93164,-17.20117 0.81836,-1.41992 9.93164,-17.19922 -25.9668,-22.31836 a 158.74547,158.74547 0 0 0 7.6211,-28.09766 l 33.54882,-6.32617 v -19.86133 -1.63867 -19.86133 l -33.59765,-6.33594 a 158.74547,158.74547 0 0 0 -7.65625,-28.01367 l 26.05078,-22.39258 -9.93164,-17.19922 -0.81836,-1.41992 -9.93164,-17.20117 -32.75196,11.48242 a 158.74547,158.74547 0 0 0 -20.32226,-20.11133 l 11.53711,-32.9082 -17.20117,-9.93164 -1.41993,-0.81836 -17.19922,-9.93165 -22.97461,26.73047 a 158.74547,158.74547 0 0 0 -27.19336,-7.07812 l -6.57421,-34.85547 h -19.86133 -1.63868 z m 21.48242,56.32031 A 135.01303,135.01302 0 0 1 554.6797,460.6797 135.01303,135.01302 0 0 1 419.66798,595.69142 135.01303,135.01302 0 0 1 284.6543,460.6797 135.01303,135.01302 0 0 1 419.66798,325.66602 Z" />
  </g>
  <g
     inkscape:groupmode="layer"
     id="g39"
     inkscape:label="Gear solid orange copy"
     style="display:none">
    <path
       id="path39"
       style="fill:#ff9200;fill-opacity:1;stroke:#ff9200;stroke-width:9.55842;stroke-linecap:round;stroke-linejoin:round;stroke-dasharray:none;stroke-opacity:1;paint-order:stroke markers fill"
       d="m 398.18556,269.34571 -6.67774,35.41602 a 158.74547,158.74547 0 0 0 -26.43164,7.2832 l -23.63281,-27.4961 -17.19922,9.93165 -1.41992,0.81836 -17.20118,9.93164 11.95118,34.08398 a 158.74547,158.74547 0 0 0 -19.37696,19.41211 l -34.11133,-11.95898 -9.93164,17.20117 -0.81836,1.41992 -9.93164,17.19922 27.5586,23.6875 a 158.74547,158.74547 0 0 0 -7.23633,26.35547 l -35.52539,6.69922 v 19.86133 1.63867 19.86133 l 35.2207,6.64062 a 158.74547,158.74547 0 0 0 7.16406,26.73828 l -27.18164,23.36329 9.93164,17.19922 0.81836,1.41992 9.93164,17.20117 33.31641,-11.68164 a 158.74547,158.74547 0 0 0 19.80078,20.19531 l -11.58008,33.02344 17.20118,9.93164 1.41992,0.81836 17.19922,9.93164 22.76172,-26.48242 a 158.74547,158.74547 0 0 0 27.5664,7.66601 l 6.41407,34.01954 h 19.86132 1.63868 19.86133 l 6.34765,-33.65625 a 158.74547,158.74547 0 0 0 28.02149,-7.57618 l 22.37304,26.0293 17.19922,-9.93164 1.41993,-0.81836 17.20117,-9.93164 -11.24414,-32.07422 a 158.74547,158.74547 0 0 0 20.73633,-20.69922 l 32.04492,11.23633 9.93164,-17.20117 0.81836,-1.41992 9.93164,-17.19922 -25.9668,-22.31836 a 158.74547,158.74547 0 0 0 7.6211,-28.09766 l 33.54882,-6.32617 v -19.86133 -1.63867 -19.86133 l -33.59765,-6.33594 a 158.74547,158.74547 0 0 0 -7.65625,-28.01367 l 26.05078,-22.39258 -9.93164,-17.19922 -0.81836,-1.41992 -9.93164,-17.20117 -32.75196,11.48242 a 158.74547,158.74547 0 0 0 -20.32226,-20.11133 l 11.53711,-32.9082 -17.20117,-9.93164 -1.41993,-0.81836 -17.19922,-9.93165 -22.97461,26.73047 a 158.74547,158.74547 0 0 0 -27.19336,-7.07812 l -6.57421,-34.85547 h -19.86133 -1.63868 z m 21.48242,56.32031 A 135.01303,135.01302 0 0 1 554.6797,460.6797 135.01303,135.01302 0 0 1 419.66798,595.69142 135.01303,135.01302 0 0 1 284.6543,460.6797 135.01303,135.01302 0 0 1 419.66798,325.66602 Z" />
  </g>
  <g
     inkscape:groupmode="layer"
     id="g23"
     inkscape:label="Gear solid black"
     style="display:inline;fill:#000000;fill-opacity:1;stroke:#000000;stroke-opacity:1">
    <path
       id="path23"
       style="fill:#000000;fill-opacity:1;stroke:#000000;stroke-width:9.55842;stroke-linecap:round;stroke-linejoin:round;stroke-dasharray:none;stroke-opacity:1;paint-order:stroke markers fill"
       d="m 398.18556,269.34571 -6.67774,35.41602 a 158.74547,158.74547 0 0 0 -26.43164,7.2832 l -23.63281,-27.4961 -17.19922,9.93165 -1.41992,0.81836 -17.20118,9.93164 11.95118,34.08398 a 158.74547,158.74547 0 0 0 -19.37696,19.41211 l -34.11133,-11.95898 -9.93164,17.20117 -0.81836,1.41992 -9.93164,17.19922 27.5586,23.6875 a 158.74547,158.74547 0 0 0 -7.23633,26.35547 l -35.52539,6.69922 v 19.86133 1.63867 19.86133 l 35.2207,6.64062 a 158.74547,158.74547 0 0 0 7.16406,26.73828 l -27.18164,23.36329 9.93164,17.19922 0.81836,1.41992 9.93164,17.20117 33.31641,-11.68164 a 158.74547,158.74547 0 0 0 19.80078,20.19531 l -11.58008,33.02344 17.20118,9.93164 1.41992,0.81836 17.19922,9.93164 22.76172,-26.48242 a 158.74547,158.74547 0 0 0 27.5664,7.66601 l 6.41407,34.01954 h 19.86132 1.63868 19.86133 l 6.34765,-33.65625 a 158.74547,158.74547 0 0 0 28.02149,-7.57618 l 22.37304,26.0293 17.19922,-9.93164 1.41993,-0.81836 17.20117,-9.93164 -11.24414,-32.07422 a 158.74547,158.74547 0 0 0 20.73633,-20.69922 l 32.04492,11.23633 9.93164,-17.20117 0.81836,-1.41992 9.93164,-17.19922 -25.9668,-22.31836 a 158.74547,158.74547 0 0 0 7.6211,-28.09766 l 33.54882,-6.32617 v -19.86133 -1.63867 -19.86133 l -33.59765,-6.33594 a 158.74547,158.74547 0 0 0 -7.65625,-28.01367 l 26.05078,-22.39258 -9.93164,-17.19922 -0.81836,-1.41992 -9.93164,-17.20117 -32.75196,11.48242 a 158.74547,158.74547 0 0 0 -20.32226,-20.11133 l 11.53711,-32.9082 -17.20117,-9.93164 -1.41993,-0.81836 -17.19922,-9.93165 -22.97461,26.73047 a 158.74547,158.74547 0 0 0 -27.19336,-7.07812 l -6.57421,-34.85547 h -19.86133 -1.63868 z m 21.48242,56.32031 A 135.01303,135.01302 0 0 1 554.6797,460.6797 135.01303,135.01302 0 0 1 419.66798,595.69142 135.01303,135.01302 0 0 1 284.6543,460.6797 135.01303,135.01302 0 0 1 419.66798,325.66602 Z" />
  </g>
  <g
     inkscape:groupmode="layer"
     id="g9"
     inkscape:label="Gear solid grey"
     style="display:none"
     sodipodi:insensitive="true">
    <path
       id="path8"
       style="display:inline;fill:#808080;fill-opacity:1;stroke:#808080;stroke-width:9.55842;stroke-linecap:round;stroke-linejoin:round;stroke-dasharray:none;stroke-opacity:1;paint-order:stroke markers fill"
       d="m 398.18556,269.34571 -6.67774,35.41602 a 158.74547,158.74547 0 0 0 -26.43164,7.2832 l -23.63281,-27.4961 -17.19922,9.93165 -1.41992,0.81836 -17.20118,9.93164 11.95118,34.08398 a 158.74547,158.74547 0 0 0 -19.37696,19.41211 l -34.11133,-11.95898 -9.93164,17.20117 -0.81836,1.41992 -9.93164,17.19922 27.5586,23.6875 a 158.74547,158.74547 0 0 0 -7.23633,26.35547 l -35.52539,6.69922 v 19.86133 1.63867 19.86133 l 35.2207,6.64062 a 158.74547,158.74547 0 0 0 7.16406,26.73828 l -27.18164,23.36329 9.93164,17.19922 0.81836,1.41992 9.93164,17.20117 33.31641,-11.68164 a 158.74547,158.74547 0 0 0 19.80078,20.19531 l -11.58008,33.02344 17.20118,9.93164 1.41992,0.81836 17.19922,9.93164 22.76172,-26.48242 a 158.74547,158.74547 0 0 0 27.5664,7.66601 l 6.41407,34.01954 h 19.86132 1.63868 19.86133 l 6.34765,-33.65625 a 158.74547,158.74547 0 0 0 28.02149,-7.57618 l 22.37304,26.0293 17.19922,-9.93164 1.41993,-0.81836 17.20117,-9.93164 -11.24414,-32.07422 a 158.74547,158.74547 0 0 0 20.73633,-20.69922 l 32.04492,11.23633 9.93164,-17.20117 0.81836,-1.41992 9.93164,-17.19922 -25.9668,-22.31836 a 158.74547,158.74547 0 0 0 7.6211,-28.09766 l 33.54882,-6.32617 v -19.86133 -1.63867 -19.86133 l -33.59765,-6.33594 a 158.74547,158.74547 0 0 0 -7.65625,-28.01367 l 26.05078,-22.39258 -9.93164,-17.19922 -0.81836,-1.41992 -9.93164,-17.20117 -32.75196,11.48242 a 158.74547,158.74547 0 0 0 -20.32226,-20.11133 l 11.53711,-32.9082 -17.20117,-9.93164 -1.41993,-0.81836 -17.19922,-9.93165 -22.97461,26.73047 a 158.74547,158.74547 0 0 0 -27.19336,-7.07812 l -6.57421,-34.85547 h -19.86133 -1.63868 z m 21.48242,56.32031 A 135.01303,135.01302 0 0 1 554.6797,460.6797 135.01303,135.01302 0 0 1 419.66798,595.69142 135.01303,135.01302 0 0 1 284.6543,460.6797 135.01303,135.01302 0 0 1 419.66798,325.66602 Z" />
  </g>
  <g
     inkscape:groupmode="layer"
     id="g18"
     inkscape:label="Big Gear 2 separte circle"
     style="display:inline">
    <path
       id="path17"
       style="fill:#000000;fill-opacity:1;stroke:#000000;stroke-width:5.13378;stroke-linecap:round;stroke-linejoin:round;stroke-dasharray:none;stroke-opacity:1;paint-order:stroke markers fill"
       d="m 598.70444,183.24947 -4.88918,17.26582 a 68.939995,68.939995 0 0 0 -15.17033,6.41818 l -15.80397,-8.82877 -9.2446,9.24374 -0.76277,0.76364 -9.2446,9.24373 8.84857,15.84013 a 68.939995,68.939995 0 0 0 -6.36654,15.11351 l -17.33727,4.90985 v 13.07398 1.07874 13.07399 l 17.33211,4.90726 a 68.939995,68.939995 0 0 0 6.36567,15.12642 l -8.84254,15.82894 9.2446,9.2446 0.76277,0.76364 9.2446,9.24373 15.78503,-8.81844 a 68.939995,68.939995 0 0 0 15.1953,6.42938 l 4.88315,17.2443 h 13.07313 1.0796 13.07312 l 4.87025,-17.20039 a 68.939995,68.939995 0 0 0 15.30205,-6.42077 l 15.69119,8.76592 9.2446,-9.24373 0.76277,-0.76364 9.2446,-9.2446 -8.74698,-15.65675 a 68.939995,68.939995 0 0 0 6.47242,-15.35629 l 17.1298,-4.84958 v -13.07399 -1.07874 -13.07398 l -17.08848,-4.83925 a 68.939995,68.939995 0 0 0 -6.43454,-15.50782 l 8.66778,-15.51642 -9.2446,-9.24373 -0.76277,-0.76364 -9.2446,-9.24374 -15.55602,8.69016 a 68.939995,68.939995 0 0 0 -15.44497,-6.37427 l -4.8625,-17.17112 h -13.07312 -1.0796 z m 13.70763,34.90097 a 48.69262,48.69262 0 0 1 48.69297,48.69298 48.69262,48.69262 0 0 1 -48.69297,48.6921 48.69262,48.69262 0 0 1 -48.69211,-48.6921 48.69262,48.69262 0 0 1 48.69211,-48.69298 z" />
  </g>
  <g
     inkscape:groupmode="layer"
     id="g21"
     inkscape:label="Big Gear 2 separte circle copy"
     style="display:none">
    <path
       id="path18"
       style="fill:#808080;fill-opacity:1;stroke:#808080;stroke-width:5.13378;stroke-linecap:round;stroke-linejoin:round;stroke-dasharray:none;stroke-opacity:1;paint-order:stroke markers fill"
       d="m 598.70444,183.24947 -4.88918,17.26582 a 68.939995,68.939995 0 0 0 -15.17033,6.41818 l -15.80397,-8.82877 -9.2446,9.24374 -0.76277,0.76364 -9.2446,9.24373 8.84857,15.84013 a 68.939995,68.939995 0 0 0 -6.36654,15.11351 l -17.33727,4.90985 v 13.07398 1.07874 13.07399 l 17.33211,4.90726 a 68.939995,68.939995 0 0 0 6.36567,15.12642 l -8.84254,15.82894 9.2446,9.2446 0.76277,0.76364 9.2446,9.24373 15.78503,-8.81844 a 68.939995,68.939995 0 0 0 15.1953,6.42938 l 4.88315,17.2443 h 13.07313 1.0796 13.07312 l 4.87025,-17.20039 a 68.939995,68.939995 0 0 0 15.30205,-6.42077 l 15.69119,8.76592 9.2446,-9.24373 0.76277,-0.76364 9.2446,-9.2446 -8.74698,-15.65675 a 68.939995,68.939995 0 0 0 6.47242,-15.35629 l 17.1298,-4.84958 v -13.07399 -1.07874 -13.07398 l -17.08848,-4.83925 a 68.939995,68.939995 0 0 0 -6.43454,-15.50782 l 8.66778,-15.51642 -9.2446,-9.24373 -0.76277,-0.76364 -9.2446,-9.24374 -15.55602,8.69016 a 68.939995,68.939995 0 0 0 -15.44497,-6.37427 l -4.8625,-17.17112 h -13.07312 -1.0796 z m 13.70763,34.90097 a 48.69262,48.69262 0 0 1 48.69297,48.69298 48.69262,48.69262 0 0 1 -48.69297,48.6921 48.69262,48.69262 0 0 1 -48.69211,-48.6921 48.69262,48.69262 0 0 1 48.69211,-48.69298 z" />
  </g>
  <g
     inkscape:groupmode="layer"
     id="g24"
     inkscape:label="Big Gear 2 separte circle copy"
     style="display:inline">
    <path
       id="path24"
       style="fill:#ff9200;fill-opacity:1;stroke:#ff9200;stroke-width:5.13378;stroke-linecap:round;stroke-linejoin:round;stroke-dasharray:none;stroke-opacity:1;paint-order:stroke markers fill"
       d="m 598.70444,183.24947 -4.88918,17.26582 a 68.939995,68.939995 0 0 0 -15.17033,6.41818 l -15.80397,-8.82877 -9.2446,9.24374 -0.76277,0.76364 -9.2446,9.24373 8.84857,15.84013 a 68.939995,68.939995 0 0 0 -6.36654,15.11351 l -17.33727,4.90985 v 13.07398 1.07874 13.07399 l 17.33211,4.90726 a 68.939995,68.939995 0 0 0 6.36567,15.12642 l -8.84254,15.82894 9.2446,9.2446 0.76277,0.76364 9.2446,9.24373 15.78503,-8.81844 a 68.939995,68.939995 0 0 0 15.1953,6.42938 l 4.88315,17.2443 h 13.07313 1.0796 13.07312 l 4.87025,-17.20039 a 68.939995,68.939995 0 0 0 15.30205,-6.42077 l 15.69119,8.76592 9.2446,-9.24373 0.76277,-0.76364 9.2446,-9.2446 -8.74698,-15.65675 a 68.939995,68.939995 0 0 0 6.47242,-15.35629 l 17.1298,-4.84958 v -13.07399 -1.07874 -13.07398 l -17.08848,-4.83925 a 68.939995,68.939995 0 0 0 -6.43454,-15.50782 l 8.66778,-15.51642 -9.2446,-9.24373 -0.76277,-0.76364 -9.2446,-9.24374 -15.55602,8.69016 a 68.939995,68.939995 0 0 0 -15.44497,-6.37427 l -4.8625,-17.17112 h -13.07312 -1.0796 z m 13.70763,34.90097 a 48.69262,48.69262 0 0 1 48.69297,48.69298 48.69262,48.69262 0 0 1 -48.69297,48.6921 48.69262,48.69262 0 0 1 -48.69211,-48.6921 48.69262,48.69262 0 0 1 48.69211,-48.69298 z" />
  </g>
</svg>
