<?xml version="1.0" encoding="UTF-8" standalone="no"?>
<!-- Created with Inkscape (http://www.inkscape.org/) -->

<svg
   width="16"
   height="16"
   viewBox="0 0 4.2333332 4.2333333"
   version="1.1"
   id="svg1"
   inkscape:version="1.3.2 (091e20e, 2023-11-25)"
   sodipodi:docname="gears-favicon.svg"
   inkscape:export-filename="gears-favicon.png"
   inkscape:export-xdpi="109.51487"
   inkscape:export-ydpi="109.51487"
   xmlns:inkscape="http://www.inkscape.org/namespaces/inkscape"
   xmlns:sodipodi="http://sodipodi.sourceforge.net/DTD/sodipodi-0.dtd"
   xmlns="http://www.w3.org/2000/svg"
   xmlns:svg="http://www.w3.org/2000/svg">
  <sodipodi:namedview
     id="namedview1"
     pagecolor="#ffffff"
     bordercolor="#000000"
     borderopacity="0.25"
     inkscape:showpageshadow="2"
     inkscape:pageopacity="0.0"
     inkscape:pagecheckerboard="0"
     inkscape:deskcolor="#d1d1d1"
     inkscape:document-units="mm"
     inkscape:zoom="38.057741"
     inkscape:cx="7.5280349"
     inkscape:cy="7.3966556"
     inkscape:window-width="1512"
     inkscape:window-height="792"
     inkscape:window-x="0"
     inkscape:window-y="38"
     inkscape:window-maximized="0"
     inkscape:current-layer="layer1-3" />
  <defs
     id="defs1" />
  <g
     inkscape:label="Layer 1"
     inkscape:groupmode="layer"
     id="layer1">
    <g
       id="layer1-3"
       transform="matrix(0.0295245,0,0,0.0295245,-0.96581456,-2.2515705)">
      <g
         id="logo"
         transform="matrix(0.26458333,0,0,0.26458333,71.376313,129.36614)"
         style="display:inline">
        <path
           class="cls-8"
           d="m 74.31,13.8 c 14.51,-2.28 25.97,7.37 29.16,15.32 2.36,5.88 1.82,15.94 4.45,21.74 4.08,9.02 12.89,15.36 22.24,16.31 7.69,0.78 15.83,-4.68 26.68,-1.98 11.38,2.83 24.25,16.59 17.3,34.59 -3.22,8.33 -11.82,15.36 -22.73,15.81 -7.92,0.33 -15.38,-3.38 -22.24,-2.47 -9.81,1.3 -18.47,8.96 -21.74,16.8 -2.81,6.73 -1.69,14.71 -4.45,21.25 -4.13,9.8 -18.13,19.84 -33.11,13.84 -21.18,-8.49 -21.76,-47.48 7.91,-49.42 9.52,-0.62 16.42,3.66 24.71,1.98 9.22,-1.87 16.21,-7.59 19.77,-15.81 8.28,-19.12 -5.25,-39.21 -24.71,-40.03 -10.42,-0.44 -14.99,4 -24.21,1.98 C 56.71,60.05 47.87,36.68 60,22.2 c 2.64,-3.15 8.14,-7.43 14.33,-8.4 z"
           id="path1-8"
           style="fill-rule:evenodd" />
        <path
           class="cls-5"
           d="m 129.16,22.69 c 9.25,-2.07 18.3,2.16 20.75,10.38 3.44,11.53 -5.26,25.81 -20.75,22.73 -17.02,-3.38 -15.98,-29.54 0,-33.11 z"
           id="path2"
           style="fill:#ff9200;fill-rule:evenodd" />
        <path
           class="cls-7"
           d="m 91.61,65.19 c 36.26,-5.69 39.92,47.16 7.91,50.4 -8.9,0.9 -14.04,-3.1 -22.24,-2.47 -17.46,1.34 -31.25,19.33 -23.72,38.54 3.02,7.7 11.96,17.71 25.7,17.79 4.66,0.03 11.37,-3.1 17.79,-2.96 17.64,0.36 29.14,18.26 23.23,34.59 -7.66,21.17 -39.71,21.52 -47.93,0.99 -3.17,-7.91 -1.93,-16.3 -4.45,-21.74 -3.39,-7.34 -12.12,-16.05 -24.71,-16.31 -5.62,-0.11 -11.94,3.96 -22.24,2.47 -14.22,-2.05 -25.93,-19.73 -18.78,-36.07 2.34,-5.35 9.28,-13.64 20.26,-14.82 9.59,-1.04 15.66,3.1 22.73,2.47 9.58,-0.85 19.09,-6.89 23.23,-16.8 2.85,-6.82 1.52,-14.44 3.95,-20.75 2.84,-7.38 9.74,-13.82 19.27,-15.32 z"
           id="path3"
           style="fill:#808080;fill-rule:evenodd" />
        <path
           class="cls-5"
           d="m 40.21,81.99 c 7.26,-1.75 10.78,2.64 10.87,7.91 0.18,10.77 -17.48,12.66 -17.3,0 0.06,-4.11 1.93,-6.82 6.42,-7.91 z"
           id="path4"
           style="fill:#ff9200;fill-rule:evenodd" />
        <path
           class="cls-5"
           d="m 130.65,128.94 c 8.95,-1.84 15.9,3.68 15.81,12.35 -0.13,13.88 -20.87,17.68 -25.2,4.45 -2.46,-7.5 0.4,-14.95 9.39,-16.8 z"
           id="path5"
           style="fill:#ff9200;fill-rule:evenodd" />
        <path
           class="cls-5"
           d="m 39.23,169.95 c 16.07,-2.19 32.02,13.25 24.21,31.63 -3.8,8.95 -16.95,17.35 -30.14,11.86 -20.2,-8.4 -17.04,-40.35 5.93,-43.49 z"
           id="path6"
           style="fill:#ff9200;fill-rule:evenodd" />
      </g>
      <path
         id="path23"
         style="display:inline;fill:#000000;fill-opacity:1;stroke:#000000;stroke-width:2.529;stroke-linecap:round;stroke-linejoin:round;stroke-dasharray:none;stroke-opacity:1;paint-order:stroke markers fill"
         d="m 88.572864,109.18379 -1.766818,9.37048 a 42.001405,42.001405 0 0 0 -6.993372,1.92702 l -6.252847,-7.27501 -4.550627,2.62775 -0.375687,0.21652 -4.551146,2.62775 3.162083,9.01805 a 42.001405,42.001405 0 0 0 -5.12682,5.13612 l -9.02529,-3.16415 -2.627746,4.55115 -0.216524,0.37568 -2.627747,4.55063 7.291546,6.26732 a 42.001405,42.001405 0 0 0 -1.914612,6.97322 l -9.399426,1.7725 v 5.25498 0.43356 5.25498 l 9.31881,1.75699 a 42.001405,42.001405 0 0 0 1.895491,7.07451 l -7.191809,6.18154 2.627747,4.55062 0.216524,0.37569 2.627746,4.55114 8.814967,-3.09077 a 42.001405,42.001405 0 0 0 5.238956,5.34335 l -3.063896,8.73745 4.551146,2.62775 0.375687,0.21652 4.550627,2.62775 6.022372,-7.00681 a 42.001405,42.001405 0 0 0 7.293609,2.0283 l 1.697056,9.001 h 5.254975 0.433567 5.254977 l 1.679487,-8.90488 a 42.001405,42.001405 0 0 0 7.41401,-2.00453 l 5.91954,6.88692 4.55062,-2.62775 0.37569,-0.21652 4.55115,-2.62775 -2.97501,-8.4863 a 42.001405,42.001405 0 0 0 5.48648,-5.47667 l 8.47855,2.97294 2.62775,-4.55114 0.21653,-0.37569 2.62774,-4.55062 -6.87038,-5.90507 a 42.001405,42.001405 0 0 0 2.01641,-7.43417 l 8.87646,-1.6738 v -5.25498 -0.43356 -5.25498 l -8.88937,-1.67638 a 42.001405,42.001405 0 0 0 -2.02572,-7.41196 l 6.8926,-5.9247 -2.62774,-4.55063 -0.21653,-0.37568 -2.62775,-4.55115 -8.66562,3.03806 a 42.001405,42.001405 0 0 0 -5.37693,-5.32112 l 3.05253,-8.70696 -4.55115,-2.62775 -0.37569,-0.21652 -4.55062,-2.62775 -6.0787,7.07243 a 42.001405,42.001405 0 0 0 -7.19491,-1.87275 l -1.739427,-9.22217 h -5.254977 -0.433567 z m 5.683891,14.90141 A 35.722197,35.722194 0 0 1 129.97861,159.80757 35.722197,35.722194 0 0 1 94.256755,195.52942 35.722197,35.722194 0 0 1 58.534386,159.80757 35.722197,35.722194 0 0 1 94.256755,124.0852 Z" />
      <path
         id="path17"
         style="display:inline;fill:#ff9200;fill-opacity:1;stroke:#ff9200;stroke-width:1.35831;stroke-linecap:round;stroke-linejoin:round;stroke-dasharray:none;stroke-opacity:1;paint-order:stroke markers fill"
         d="m 141.62682,86.404156 -1.2936,4.568248 a 18.240373,18.240373 0 0 0 -4.01381,1.698144 l -4.18147,-2.335946 -2.44597,2.44574 -0.20181,0.202046 -2.44597,2.445737 2.34118,4.191034 a 18.240373,18.240373 0 0 0 -1.68448,3.998781 l -4.58715,1.29907 v 3.45915 0.28542 3.45916 l 4.58579,1.29838 a 18.240373,18.240373 0 0 0 1.68425,4.0022 l -2.33959,4.18807 2.44597,2.44597 0.20181,0.20205 2.44597,2.44573 4.17645,-2.33321 a 18.240373,18.240373 0 0 0 4.02043,1.70111 l 1.292,4.56255 h 3.45893 0.28564 3.45893 l 1.28859,-4.55094 a 18.240373,18.240373 0 0 0 4.04867,-1.69882 l 4.15163,2.31931 2.44596,-2.44573 0.20182,-0.20205 2.44597,-2.44597 -2.31431,-4.14251 a 18.240373,18.240373 0 0 0 1.71249,-4.06302 l 4.53226,-1.28312 v -3.45916 -0.28542 -3.45915 l -4.52132,-1.28039 a 18.240373,18.240373 0 0 0 -1.70247,-4.103109 l 2.29335,-4.105386 -2.44597,-2.445737 -0.20182,-0.202046 -2.44596,-2.44574 -4.11587,2.299272 a 18.240373,18.240373 0 0 0 -4.08648,-1.686526 l -1.28654,-4.543192 h -3.45893 -0.28564 z m 3.62681,9.234215 a 12.883256,12.883256 0 0 1 12.88335,12.883349 12.883256,12.883256 0 0 1 -12.88335,12.88312 12.883256,12.883256 0 0 1 -12.88312,-12.88312 12.883256,12.883256 0 0 1 12.88312,-12.883349 z" />
    </g>
  </g>
</svg>
